<?xml version="1.0" encoding="utf-8"?>
<!-- Generator: Adobe Illustrator 21.0.2, SVG Export Plug-In . SVG Version: 6.00 Build 0)  -->
<svg version="1.1" id="Layer_1" xmlns="http://www.w3.org/2000/svg" xmlns:xlink="http://www.w3.org/1999/xlink" x="0px" y="0px"
	 viewBox="0 0 108 50" style="enable-background:new 0 0 108 50;" xml:space="preserve">
<style type="text/css">
	.st0{fill:#FFFFFF;}
</style>
<g>
	<g>
		<path class="st0" d="M15.9,26.8h-5.6v19.1h-6V26.8H2v-2.7l2.2-0.6v-3.3c0-5.1,1.9-8.5,7.1-8.5c2.6,0,5.1,1.5,5.1,1.5l-0.8,2.6
			c0,0-1.9-1.1-3.2-1.1c-1.5,0-2.2,0.8-2.2,6.2v2.5h5.6V26.8z"/>
		<path class="st0" d="M27.4,46.4c-6.8,0-10.5-4.3-10.5-11.8s3.7-11.8,10.5-11.8c6.8,0,10.6,4.3,10.6,11.8S33.9,46.4,27.4,46.4z
			 M23.3,34.5c0,6.6,1.1,8.9,4.1,8.9s4.1-2.3,4.1-8.8c0-6.5-1.1-8.8-4.1-8.8S23.3,28.1,23.3,34.5z"/>
		<path class="st0" d="M47.4,45.9h-6V12.2l6-0.4V45.9z"/>
		<path class="st0" d="M55.9,13c0.9,0,1.7,0.3,2.3,0.9c0.7,0.7,1,1.6,1,2.6c0,0.9-0.3,1.9-1,2.6c-0.6,0.5-1.4,0.9-2.3,0.9
			c-0.9,0-1.7-0.3-2.4-0.9c-0.7-0.7-1-1.6-1-2.6c0-0.9,0.4-1.9,1-2.5C54.2,13.3,55.1,13,55.9,13z M58.9,45.9h-6V23.3h6V45.9z"/>
		<path class="st0" d="M72.9,46.4c-6.8,0-10.5-4.3-10.5-11.8s3.7-11.8,10.5-11.8c6.8,0,10.6,4.3,10.6,11.8S79.4,46.4,72.9,46.4z
			 M68.9,34.5c0,6.6,1.1,8.9,4.1,8.9s4.1-2.3,4.1-8.8c0-6.5-1.1-8.8-4.1-8.8S68.9,28.1,68.9,34.5z"/>
	</g>
	<path class="st0" d="M105.8,11.9c-0.3-0.4-0.8-0.6-1.5-0.6c-0.7,0-1.6,0.2-2.7,0.5c-3.3,1.1-4.9,2.3-6.2,3.2
		c-0.5,0.4-0.9,0.7-1.3,0.9c-0.1-0.7-0.3-1.5-0.8-2.1c-0.3-0.3-0.6-0.6-1-0.8c0.1-0.1,0.2-0.2,0.2-0.3c0,0,0-0.1,0.1-0.1
		c0,0,0,0,0,0c0.4-0.1,0.5-0.7,0.3-1.4c-0.1-0.3-0.3-0.5-0.4-0.7c-0.2-0.2-0.3-0.2-0.5-0.2c-0.2-0.2-0.4-0.3-0.6-0.4
		c0.1-0.4,0.2-0.8,0.3-1.2c0.2-0.6,0.5-1.2,0.8-1.8c0.3-0.7,0.7-1.2,1.1-1.7c0.2-0.3,0.5-0.5,0.7-0.7C94.5,4.2,94.8,4,95,4
		c0.1,0,0.1-0.1,0.1-0.2c0-0.1-0.1-0.1-0.2-0.1c0,0,0,0,0,0c-0.3,0.1-0.6,0.3-0.9,0.5c-0.2,0.2-0.5,0.5-0.7,0.8
		c-0.4,0.5-0.8,1.1-1.1,1.7c-0.3,0.6-0.6,1.3-0.8,1.9C91.1,9,91,9.4,90.9,9.8c0,0,0,0-0.1,0c-0.1,0-0.3,0-0.4,0
		c-0.1-0.4-0.2-0.8-0.4-1.2c-0.2-0.6-0.5-1.3-0.8-1.9c-0.4-0.7-0.7-1.2-1.1-1.7c-0.2-0.3-0.5-0.6-0.7-0.8c-0.3-0.3-0.6-0.5-0.9-0.5
		c0,0,0,0,0,0h0c-0.1,0-0.1,0-0.2,0.1c0,0.1,0,0.2,0.1,0.2c0.3,0.1,0.5,0.2,0.8,0.5c0.2,0.2,0.4,0.4,0.7,0.7c0.4,0.5,0.7,1,1.1,1.7
		c0.3,0.6,0.6,1.2,0.8,1.8c0.1,0.4,0.3,0.8,0.3,1.2c-0.2,0.1-0.4,0.2-0.5,0.4c0,0,0,0-0.1,0.1c-0.2,0-0.3,0.1-0.5,0.2
		c-0.2,0.2-0.3,0.4-0.4,0.7c-0.2,0.6-0.1,1.2,0.3,1.4c0,0,0,0,0,0c0.1,0.2,0.2,0.3,0.3,0.5c-0.4,0.2-0.8,0.5-1,0.9
		c-0.4,0.6-0.7,1.3-0.8,2c-0.4-0.2-0.8-0.5-1.4-0.9c-1.2-0.9-2.9-2.1-6.2-3.2c-1.1-0.4-2-0.5-2.7-0.5c-0.7,0-1.2,0.2-1.5,0.6
		c-0.6,0.8,0,2,0.9,2.9c0.4,0.3,0.7,0.7,1.1,0.9c0.4,0.3,0.7,0.6,0.9,0.8c0,0,0,0,0,0c0.7-0.5,1.8-0.8,2.7-0.9
		c0.6,0,3.6-0.1,6.2,0.6c0,0,0,0,0,0c0,0.1,0,0.1,0,0.2c-1.8-0.5-3.9-0.5-5.1-0.5c-0.6,0-1,0-1,0c-0.9,0-1.9,0.4-2.6,0.9
		c-0.1,0-0.1,0.1-0.2,0.1c-0.1,0-0.1,0.1-0.2,0.1c-0.2,0.2-0.3,0.3-0.3,0.5c-0.1,0.5,0.1,1,0.8,1.5c1.7,1.2,4.3,1.7,6.4,0.1
		c0.8-0.6,1.4-1,1.9-1.4c0.2-0.1,0.3-0.2,0.4-0.3c0.1,0.4,0.3,0.7,0.5,1c0.2,0.2,0.4,0.5,0.6,0.7c-0.3,0.3-0.5,0.6-0.7,1.1
		c-0.2,0.3-0.3,0.6-0.5,1c-0.1,0.3-0.2,0.5-0.2,0.7l0,0c-0.1,0.4-0.2,0.7-0.2,1.1c0,0.3-0.1,0.5-0.1,0.7c0,0,0,0.1,0,0.1l0,0
		c0,0.3,0,0.6,0,0.8c0,0.1,0,0.2,0.1,0.3c0,0.2,0.1,0.4,0.2,0.6c0,0.1,0,0.1,0.1,0.2l0,0.1c0.1,0.4,0.3,0.8,0.5,1.1l0,0
		c0,0.1,0.1,0.2,0.1,0.2c0.1,0.2,0.3,0.4,0.5,0.7c0.2,0.3,0.4,0.6,0.7,0.8c0.2,0.2,0.4,0.4,0.7,0.6c0.2,0.2,0.5,0.4,0.8,0.5
		c0.1,0,0.2,0,0.2,0c0.1,0,0.2,0,0.3-0.1c0.1-0.1,0.3-0.1,0.4-0.2c0.2-0.1,0.4-0.3,0.7-0.6c0.3-0.3,0.6-0.7,0.9-1.1
		c0.1-0.1,0.2-0.2,0.2-0.3c0.1-0.2,0.3-0.4,0.4-0.6c0.2-0.3,0.4-0.7,0.5-1l0-0.1c0.1-0.3,0.2-0.6,0.3-0.9c0.1-0.3,0.1-0.5,0.1-0.8
		c0-0.1,0-0.1,0-0.2l0-0.1c0-0.3,0-0.6-0.1-0.8c-0.1-0.4-0.1-0.7-0.2-1.1c-0.1-0.3-0.2-0.5-0.3-0.8c-0.1-0.2-0.2-0.4-0.3-0.6
		c-0.3-0.5-0.6-1-0.9-1.4c0.3-0.2,0.5-0.4,0.7-0.7c0.2-0.3,0.4-0.6,0.5-0.9c0.1,0.1,0.2,0.1,0.4,0.2c0.5,0.3,1.1,0.8,1.9,1.4
		c2.1,1.6,4.7,1.1,6.4-0.1c0.7-0.5,1-1,0.8-1.5c-0.1-0.2-0.2-0.4-0.3-0.5c0,0-0.1-0.1-0.2-0.1c0,0-0.1-0.1-0.2-0.1
		c-0.7-0.5-1.7-0.8-2.6-0.9c0,0-0.4,0-1,0c-1.2,0-3.2,0.1-5.1,0.5c0-0.1,0-0.1,0-0.2c2.6-0.6,5.6-0.6,6.1-0.6c0.9,0,1.9,0.4,2.7,0.9
		c0,0,0,0,0,0c0.2-0.2,0.4-0.4,0.9-0.8c0.3-0.3,0.7-0.6,1.1-0.9C105.8,13.9,106.4,12.7,105.8,11.9z M91.7,10.9
		c0-0.2,0.1-0.3,0.2-0.3c0,0,0,0,0.1,0c0.1,0,0.2,0,0.3,0.1c0,0,0,0,0,0c0.2,0.1,0.3,0.4,0.4,0.6c0.1,0.4,0.1,0.8,0,1
		c0,0.1-0.1,0.1-0.1,0.1c-0.2,0.1-0.6-0.2-0.7-0.8C91.7,11.4,91.7,11.1,91.7,10.9z M88.8,12.4c0,0-0.1-0.1-0.1-0.1
		c-0.1-0.2-0.1-0.5,0-1c0.1-0.3,0.2-0.5,0.4-0.6c0,0,0,0,0,0c0.1-0.1,0.2-0.2,0.3-0.1c0.1,0,0.2,0.2,0.2,0.3c0,0.2,0,0.5-0.1,0.7
		C89.4,12.2,89,12.5,88.8,12.4z M94.3,23.1c0,0.3,0.1,0.5,0.1,0.8l0,0c-0.8,0.2-2.1,0.5-3.6,0.5c-1.6,0-3-0.3-3.7-0.5c0,0,0,0,0,0
		l0,0c0,0,0,0,0-0.1c0-0.2,0-0.4,0.1-0.7c0.7,0.2,2,0.5,3.6,0.5C92.2,23.6,93.5,23.3,94.3,23.1z M93.1,27.5
		c-0.1,0.1-0.2,0.2-0.2,0.3c0,0,0,0.1-0.1,0.1c-0.6,0.1-1.3,0.2-2.1,0.2c-0.8,0-1.6-0.1-2.2-0.2c0,0,0-0.1-0.1-0.1
		c-0.2-0.2-0.3-0.4-0.4-0.7c0-0.1-0.1-0.1-0.1-0.2c0.7,0.2,1.7,0.3,2.8,0.3c1.1,0,2.1-0.2,2.8-0.3C93.3,27.2,93.2,27.4,93.1,27.5z
		 M94,25.8L94,25.8c-0.8,0.3-2,0.5-3.3,0.5c-1.4,0-2.6-0.2-3.4-0.5c0,0,0,0,0-0.1l0-0.1c0-0.1,0-0.1-0.1-0.2
		c-0.1-0.2-0.1-0.4-0.1-0.5c0.7,0.2,2,0.5,3.6,0.5c1.6,0,2.9-0.3,3.6-0.5C94.2,25.3,94.1,25.6,94,25.8z M94,22C94,22,94,22,94,22
		C94,22.1,94,22.1,94,22c-0.7,0.2-1.9,0.5-3.3,0.5c-1.5,0-2.8-0.4-3.4-0.6c0,0,0,0,0,0l0,0c0.1-0.2,0.1-0.4,0.2-0.7c0,0,0,0,0,0
		c0.7,0.2,1.8,0.5,3.1,0.5c1.3,0,2.4-0.3,3-0.5c0,0,0.1,0,0.1,0c0,0,0,0,0,0C93.9,21.5,94,21.8,94,22z"/>
</g>
</svg>
