<?xml version="1.0" encoding="utf-8"?>
<!-- Generator: Adobe Illustrator 23.0.4, SVG Export Plug-In . SVG Version: 6.00 Build 0)  -->
<svg version="1.1" id="Layer_1" xmlns="http://www.w3.org/2000/svg" xmlns:xlink="http://www.w3.org/1999/xlink" x="0px" y="0px"
	 viewBox="0 0 98 64" style="enable-background:new 0 0 98 64;" xml:space="preserve">
<style type="text/css">
	.st0{fill:#ffffff;}
</style>
<g>
	<g>
		<path class="st0" d="M25.466,13.438c0,1.717-0.297,3.297-0.891,4.738c-0.593,1.442-1.415,2.687-2.464,3.737
			c-1.049,1.049-2.289,1.871-3.72,2.464c-1.431,0.593-2.984,0.89-4.658,0.89c-1.675,0-3.227-0.297-4.658-0.89
			c-1.431-0.593-2.671-1.415-3.72-2.464c-1.049-1.049-1.871-2.294-2.464-3.737C2.297,16.734,2,15.155,2,13.438
			S2.297,10.141,2.89,8.7c0.593-1.441,1.415-2.687,2.464-3.736c1.049-1.049,2.289-1.871,3.72-2.465
			c1.431-0.593,2.984-0.89,4.658-0.89c1.674,0,3.227,0.297,4.658,0.89c1.431,0.594,2.671,1.415,3.72,2.465
			c1.049,1.049,1.871,2.295,2.464,3.736C25.169,10.141,25.466,11.72,25.466,13.438z M22.986,13.438c0-1.293-0.212-2.528-0.636-3.704
			c-0.424-1.177-1.033-2.21-1.829-3.1c-0.795-0.89-1.765-1.6-2.909-2.13c-1.145-0.53-2.438-0.795-3.879-0.795
			c-1.442,0-2.735,0.265-3.879,0.795c-1.145,0.53-2.115,1.24-2.91,2.13c-0.795,0.89-1.405,1.923-1.828,3.1
			C4.692,10.91,4.48,12.145,4.48,13.438c0,1.293,0.212,2.528,0.636,3.704c0.424,1.177,1.034,2.21,1.828,3.101
			c0.795,0.89,1.765,1.6,2.91,2.13c1.145,0.53,2.437,0.795,3.879,0.795c1.441,0,2.735-0.265,3.879-0.795
			c1.145-0.53,2.114-1.24,2.909-2.13c0.795-0.891,1.404-1.924,1.829-3.101C22.774,15.965,22.986,14.731,22.986,13.438z"/>
		<path class="st0" d="M28.104,9.813h2.099v2.481h0.063c0.339-0.509,0.742-0.943,1.209-1.304c0.466-0.36,0.954-0.657,1.462-0.89
			c0.509-0.233,1.033-0.403,1.574-0.509c0.541-0.106,1.055-0.159,1.542-0.159c1.166,0,2.231,0.196,3.196,0.588
			c0.964,0.392,1.796,0.938,2.496,1.638c0.7,0.699,1.245,1.526,1.638,2.48c0.392,0.954,0.588,1.992,0.588,3.116
			s-0.196,2.162-0.588,3.116c-0.393,0.954-0.938,1.78-1.638,2.48c-0.699,0.699-1.531,1.246-2.496,1.638
			c-0.965,0.392-2.03,0.588-3.196,0.588c-0.488,0-1.002-0.053-1.542-0.159c-0.541-0.106-1.065-0.275-1.574-0.509
			c-0.508-0.233-0.997-0.53-1.462-0.89c-0.467-0.36-0.869-0.795-1.209-1.304h-0.063v6.915h-2.099V9.813z M41.681,17.253
			c0-0.827-0.133-1.6-0.397-2.321c-0.266-0.721-0.642-1.346-1.129-1.876c-0.488-0.53-1.076-0.949-1.764-1.256
			c-0.689-0.306-1.469-0.461-2.337-0.461c-0.869,0-1.664,0.154-2.385,0.461c-0.721,0.308-1.346,0.727-1.876,1.256
			c-0.53,0.53-0.944,1.155-1.24,1.876c-0.297,0.721-0.445,1.494-0.445,2.321c0,0.826,0.148,1.601,0.445,2.321
			c0.297,0.721,0.71,1.347,1.24,1.876c0.53,0.53,1.155,0.949,1.876,1.256c0.721,0.308,1.515,0.461,2.385,0.461
			c0.869,0,1.648-0.154,2.337-0.461c0.688-0.307,1.277-0.726,1.764-1.256c0.488-0.53,0.864-1.155,1.129-1.876
			C41.549,18.854,41.681,18.08,41.681,17.253z"/>
		<path class="st0" d="M48.405,17.826c0.064,0.742,0.243,1.442,0.541,2.099c0.297,0.657,0.688,1.224,1.177,1.701
			c0.487,0.477,1.049,0.853,1.685,1.129c0.636,0.275,1.324,0.413,2.067,0.413c1.123,0,2.093-0.259,2.909-0.779
			c0.816-0.519,1.436-1.118,1.86-1.796l1.622,1.335c-0.89,1.124-1.871,1.929-2.941,2.417c-1.07,0.487-2.221,0.731-3.45,0.731
			c-1.102,0-2.125-0.197-3.068-0.588c-0.944-0.392-1.754-0.938-2.432-1.638c-0.679-0.7-1.214-1.526-1.606-2.48
			c-0.392-0.954-0.588-1.992-0.588-3.116s0.191-2.162,0.573-3.116c0.381-0.954,0.911-1.781,1.589-2.48
			c0.679-0.7,1.473-1.246,2.385-1.638c0.911-0.392,1.896-0.588,2.957-0.588c1.124,0,2.13,0.202,3.021,0.604
			c0.89,0.403,1.638,0.938,2.242,1.605c0.604,0.668,1.065,1.452,1.383,2.353c0.318,0.901,0.477,1.86,0.477,2.877v0.954H48.405z
			 M58.516,16.109c0-1.42-0.424-2.57-1.272-3.45c-0.848-0.879-2.035-1.319-3.561-1.319c-0.679,0-1.335,0.132-1.971,0.397
			c-0.636,0.265-1.193,0.62-1.669,1.065c-0.477,0.445-0.859,0.954-1.145,1.527c-0.286,0.572-0.429,1.166-0.429,1.78H58.516z"/>
		<path class="st0" d="M65.447,9.813c0.042,0.403,0.068,0.8,0.079,1.193c0.01,0.393,0.016,0.79,0.016,1.193h0.063
			c0.233-0.403,0.53-0.774,0.891-1.113c0.36-0.339,0.763-0.63,1.208-0.874c0.445-0.244,0.917-0.434,1.415-0.573
			c0.497-0.137,0.99-0.206,1.478-0.206c1.908,0,3.317,0.504,4.229,1.51c0.911,1.007,1.367,2.444,1.367,4.309v9.444h-2.099v-8.236
			c0-1.653-0.286-2.919-0.859-3.8c-0.572-0.879-1.632-1.319-3.179-1.319c-0.106,0-0.403,0.043-0.89,0.127
			c-0.488,0.085-1.002,0.318-1.542,0.699c-0.541,0.382-1.023,0.954-1.447,1.717c-0.424,0.763-0.636,1.823-0.636,3.18v7.631h-2.099
			V13.088c0-0.403-0.016-0.911-0.048-1.526c-0.032-0.615-0.069-1.197-0.111-1.749H65.447z"/>
	</g>
	<g>
		<path class="st0" d="M28.101,30.247H30.2v7.707h0.063c0.339-0.509,0.742-0.943,1.209-1.304c0.466-0.36,0.954-0.657,1.462-0.89
			c0.509-0.233,1.033-0.403,1.574-0.509c0.541-0.106,1.055-0.159,1.542-0.159c1.166,0,2.231,0.196,3.196,0.588
			c0.964,0.392,1.796,0.938,2.496,1.638c0.7,0.699,1.245,1.526,1.638,2.48c0.392,0.954,0.588,1.992,0.588,3.116
			s-0.196,2.162-0.588,3.116c-0.393,0.954-0.938,1.78-1.638,2.48c-0.699,0.699-1.531,1.246-2.496,1.638
			c-0.965,0.392-2.03,0.588-3.196,0.588c-0.488,0-1.002-0.053-1.542-0.159c-0.541-0.106-1.065-0.275-1.574-0.509
			c-0.508-0.233-0.997-0.53-1.462-0.89c-0.467-0.36-0.869-0.795-1.209-1.304H30.2v2.48h-2.099V30.247z M41.678,42.914
			c0-0.827-0.133-1.6-0.397-2.321c-0.266-0.721-0.642-1.346-1.129-1.876c-0.488-0.53-1.076-0.949-1.764-1.256
			C37.698,37.154,36.919,37,36.05,37c-0.869,0-1.664,0.154-2.385,0.461c-0.721,0.308-1.346,0.727-1.876,1.256
			c-0.53,0.53-0.944,1.155-1.24,1.876c-0.297,0.721-0.445,1.494-0.445,2.321c0,0.826,0.148,1.601,0.445,2.321
			c0.297,0.721,0.71,1.347,1.24,1.876c0.53,0.53,1.155,0.949,1.876,1.256c0.721,0.308,1.515,0.461,2.385,0.461
			c0.869,0,1.648-0.154,2.337-0.461c0.688-0.307,1.277-0.726,1.764-1.256c0.488-0.53,0.864-1.155,1.129-1.876
			C41.546,44.515,41.678,43.741,41.678,42.914z"/>
		<path class="st0" d="M7.625,48.256h10.493v2.099H5.335V27.842h2.289V48.256z"/>
		<path class="st0" d="M24.112,29.75c0,0.445-0.159,0.811-0.477,1.097c-0.318,0.286-0.668,0.429-1.049,0.429
			c-0.382,0-0.732-0.143-1.049-0.429c-0.318-0.286-0.477-0.652-0.477-1.097c0-0.445,0.159-0.811,0.477-1.097
			c0.318-0.286,0.668-0.429,1.049-0.429c0.381,0,0.731,0.143,1.049,0.429C23.953,28.94,24.112,29.305,24.112,29.75z M23.635,50.355
			h-2.098V35.474h2.098V50.355z"/>
		<path class="st0" d="M46.574,40.116c0-0.657-0.016-1.325-0.048-2.003c-0.032-0.678-0.059-1.558-0.079-2.639h2.067v2.766h0.064
			c0.148-0.403,0.36-0.79,0.636-1.16c0.275-0.371,0.609-0.704,1.002-1.002c0.392-0.297,0.848-0.535,1.367-0.715
			c0.519-0.18,1.107-0.27,1.764-0.27c0.593,0,1.113,0.064,1.558,0.191l-0.413,2.067c-0.275-0.106-0.679-0.159-1.208-0.159
			c-0.806,0-1.494,0.154-2.067,0.461c-0.573,0.308-1.049,0.7-1.431,1.177c-0.381,0.477-0.662,0.991-0.842,1.542
			c-0.181,0.551-0.27,1.081-0.27,1.59v8.394h-2.099V40.116z"/>
		<path class="st0" d="M66.446,41.229v-0.382c0-2.564-1.272-3.847-3.815-3.847c-1.739,0-3.255,0.583-4.547,1.749l-1.272-1.494
			c1.399-1.441,3.498-2.162,6.296-2.162c0.721,0,1.415,0.106,2.083,0.318c0.668,0.212,1.245,0.535,1.733,0.969
			c0.487,0.435,0.879,0.981,1.177,1.638c0.296,0.657,0.445,1.442,0.445,2.353v6.646c0,0.572,0.026,1.171,0.079,1.796
			c0.052,0.626,0.111,1.14,0.175,1.542h-2.035c-0.064-0.36-0.111-0.752-0.143-1.177c-0.032-0.424-0.048-0.837-0.048-1.24H66.51
			c-0.615,0.997-1.341,1.712-2.178,2.146c-0.838,0.434-1.86,0.652-3.068,0.652c-0.657,0-1.293-0.091-1.908-0.27
			c-0.615-0.18-1.16-0.456-1.638-0.827c-0.477-0.371-0.859-0.827-1.144-1.367c-0.286-0.541-0.43-1.171-0.43-1.892
			c0-1.208,0.313-2.157,0.938-2.846c0.625-0.688,1.41-1.203,2.353-1.542c0.943-0.339,1.95-0.551,3.021-0.636
			c1.071-0.085,2.051-0.127,2.941-0.127H66.446z M65.365,42.946c-0.53,0-1.193,0.027-1.987,0.079
			c-0.795,0.053-1.558,0.181-2.289,0.382c-0.731,0.202-1.357,0.514-1.876,0.938c-0.519,0.424-0.779,1.007-0.779,1.749
			c0,0.488,0.1,0.906,0.302,1.256c0.201,0.35,0.472,0.635,0.811,0.859c0.339,0.223,0.715,0.381,1.129,0.477
			c0.413,0.095,0.831,0.143,1.256,0.143c0.763,0,1.425-0.127,1.987-0.382c0.561-0.254,1.033-0.599,1.415-1.033
			c0.381-0.434,0.662-0.943,0.842-1.526c0.18-0.583,0.27-1.203,0.27-1.86v-1.081H65.365z"/>
		<path class="st0" d="M71.866,40.116c0-0.657-0.016-1.325-0.048-2.003c-0.032-0.678-0.059-1.558-0.079-2.639h2.067v2.766h0.064
			c0.148-0.403,0.36-0.79,0.636-1.16c0.275-0.371,0.609-0.704,1.002-1.002c0.392-0.297,0.848-0.535,1.367-0.715
			c0.519-0.18,1.107-0.27,1.764-0.27c0.593,0,1.113,0.064,1.558,0.191l-0.413,2.067c-0.275-0.106-0.679-0.159-1.208-0.159
			c-0.806,0-1.494,0.154-2.067,0.461c-0.573,0.308-1.049,0.7-1.431,1.177c-0.381,0.477-0.662,0.991-0.842,1.542
			c-0.181,0.551-0.27,1.081-0.27,1.59v8.394h-2.099V40.116z"/>
		<path class="st0" d="M88.909,47.779l4.547-12.306H96l-7.44,18.76c-0.446,1.145-1.013,2.056-1.702,2.735
			c-0.689,0.678-1.68,1.017-2.973,1.017c-0.318,0-0.641-0.011-0.969-0.032c-0.329-0.021-0.652-0.085-0.97-0.191l-0.007-1.995
			c0.445,0.233,1.204,0.31,1.819,0.31c0.742,0,1.324-0.233,1.749-0.699c0.424-0.467,0.795-1.124,1.113-1.972l1.081-2.861
			l-6.105-15.072h2.639L88.909,47.779z"/>
	</g>
	<g>
		<path class="st0" d="M5.088,54.164h5.042v1.02H6.176v2.515h3.683v1.02H6.176v3.467H5.088V54.164z"/>
		<path class="st0" d="M15.275,62.391c-0.612,0-1.175-0.108-1.689-0.323s-0.954-0.512-1.32-0.89
			c-0.367-0.378-0.654-0.823-0.861-1.337c-0.208-0.514-0.312-1.069-0.312-1.666s0.104-1.152,0.312-1.666
			c0.208-0.514,0.495-0.959,0.861-1.337c0.366-0.378,0.806-0.674,1.32-0.889c0.514-0.215,1.076-0.323,1.689-0.323
			c0.612,0,1.174,0.108,1.688,0.323c0.514,0.215,0.954,0.512,1.32,0.889c0.366,0.378,0.653,0.824,0.861,1.337
			c0.208,0.514,0.312,1.069,0.312,1.666s-0.104,1.152-0.312,1.666c-0.208,0.514-0.495,0.959-0.861,1.337
			c-0.367,0.378-0.806,0.674-1.32,0.89C16.45,62.283,15.887,62.391,15.275,62.391z M15.275,61.371c0.461,0,0.876-0.085,1.246-0.255
			c0.37-0.17,0.687-0.398,0.952-0.685c0.264-0.287,0.468-0.625,0.612-1.014s0.215-0.803,0.215-1.241
			c0-0.438-0.072-0.852-0.215-1.241c-0.143-0.389-0.348-0.727-0.612-1.014c-0.265-0.287-0.582-0.516-0.952-0.686
			c-0.37-0.17-0.786-0.255-1.246-0.255c-0.461,0-0.877,0.085-1.247,0.255c-0.37,0.17-0.687,0.398-0.952,0.686
			c-0.265,0.287-0.469,0.625-0.612,1.014c-0.143,0.389-0.215,0.803-0.215,1.241c0,0.438,0.072,0.852,0.215,1.241
			s0.348,0.727,0.612,1.014c0.264,0.287,0.582,0.516,0.952,0.685C14.399,61.286,14.814,61.371,15.275,61.371z"/>
		<path class="st0" d="M21.961,54.164v4.918c0,0.249,0.034,0.508,0.102,0.776c0.068,0.268,0.181,0.516,0.34,0.742
			c0.159,0.227,0.366,0.412,0.623,0.555c0.257,0.144,0.574,0.215,0.952,0.215s0.695-0.072,0.952-0.215
			c0.257-0.143,0.465-0.329,0.623-0.555c0.159-0.227,0.272-0.474,0.34-0.742c0.068-0.268,0.102-0.527,0.102-0.776v-4.918h1.088
			v5.088c0,0.469-0.079,0.894-0.238,1.275c-0.159,0.382-0.378,0.712-0.657,0.992c-0.28,0.279-0.608,0.495-0.986,0.646
			c-0.378,0.151-0.786,0.227-1.224,0.227s-0.846-0.076-1.224-0.227c-0.378-0.151-0.706-0.366-0.986-0.646
			c-0.28-0.279-0.499-0.61-0.657-0.992c-0.159-0.381-0.238-0.806-0.238-1.275v-5.088H21.961z"/>
		<path class="st0" d="M28.998,54.164h1.428l4.419,6.595h0.022v-6.595h1.088v8.023h-1.382l-4.465-6.595h-0.023v6.595h-1.088V54.164z
			"/>
		<path class="st0" d="M37.836,54.164h2.799c0.567,0,1.063,0.064,1.49,0.193c0.427,0.129,0.797,0.3,1.11,0.516
			s0.574,0.463,0.782,0.742c0.208,0.279,0.372,0.566,0.493,0.861c0.121,0.295,0.208,0.589,0.261,0.884
			c0.053,0.295,0.079,0.567,0.079,0.816c0,0.514-0.095,1.01-0.283,1.49c-0.189,0.48-0.468,0.907-0.838,1.28
			c-0.37,0.374-0.829,0.674-1.377,0.901c-0.548,0.227-1.181,0.34-1.898,0.34h-2.618V54.164z M38.924,61.167h1.371
			c0.461,0,0.897-0.062,1.309-0.187c0.412-0.125,0.772-0.312,1.082-0.561c0.31-0.249,0.555-0.561,0.737-0.935
			c0.181-0.374,0.272-0.81,0.272-1.309c0-0.257-0.041-0.557-0.124-0.901c-0.083-0.344-0.24-0.67-0.47-0.98
			c-0.231-0.31-0.549-0.572-0.957-0.787c-0.408-0.215-0.937-0.323-1.586-0.323h-1.632V61.167z"/>
		<path class="st0" d="M48.93,54.164h0.986l3.433,8.023H52.08l-0.804-1.983h-3.819l-0.793,1.983h-1.269L48.93,54.164z
			 M50.879,59.252l-1.496-3.683h-0.023l-1.518,3.683H50.879z"/>
		<path class="st0" d="M55.027,55.184h-2.584v-1.02h6.255v1.02h-2.584v7.003h-1.088V55.184z"/>
		<path class="st0" d="M59.854,54.164h1.088v8.023h-1.088V54.164z"/>
		<path class="st0" d="M66.687,62.391c-0.612,0-1.175-0.108-1.689-0.323s-0.954-0.512-1.32-0.89
			c-0.367-0.378-0.654-0.823-0.861-1.337c-0.208-0.514-0.312-1.069-0.312-1.666s0.104-1.152,0.312-1.666
			c0.208-0.514,0.495-0.959,0.861-1.337c0.366-0.378,0.806-0.674,1.32-0.889c0.514-0.215,1.076-0.323,1.689-0.323
			c0.612,0,1.174,0.108,1.688,0.323c0.514,0.215,0.954,0.512,1.32,0.889c0.366,0.378,0.653,0.824,0.861,1.337
			c0.208,0.514,0.312,1.069,0.312,1.666s-0.104,1.152-0.312,1.666c-0.208,0.514-0.495,0.959-0.861,1.337
			c-0.367,0.378-0.806,0.674-1.32,0.89S67.298,62.391,66.687,62.391z M66.687,61.371c0.461,0,0.876-0.085,1.246-0.255
			c0.37-0.17,0.687-0.398,0.952-0.685c0.264-0.287,0.468-0.625,0.612-1.014c0.143-0.389,0.215-0.803,0.215-1.241
			c0-0.438-0.072-0.852-0.215-1.241c-0.143-0.389-0.348-0.727-0.612-1.014c-0.265-0.287-0.582-0.516-0.952-0.686
			c-0.37-0.17-0.786-0.255-1.246-0.255c-0.461,0-0.877,0.085-1.247,0.255c-0.37,0.17-0.687,0.398-0.952,0.686
			c-0.265,0.287-0.469,0.625-0.612,1.014c-0.143,0.389-0.215,0.803-0.215,1.241c0,0.438,0.072,0.852,0.215,1.241
			s0.348,0.727,0.612,1.014c0.264,0.287,0.582,0.516,0.952,0.685C65.81,61.286,66.226,61.371,66.687,61.371z"/>
		<path class="st0" d="M72.432,54.164h1.428l4.419,6.595h0.022v-6.595h1.088v8.023h-1.382l-4.465-6.595h-0.023v6.595h-1.088V54.164z
			"/>
	</g>
</g>
</svg>
